<svg width="119" height="56" viewBox="0 0 119 56" fill="none" xmlns="http://www.w3.org/2000/svg">
<path d="M18.5069 14.5265V16.2927H22.3243V17.8311H16.7977V9.8545H22.2103V11.3928H18.5069V13.1021H21.9824V14.5265H18.5069ZM23.0075 17.8311V11.7917H24.3749L24.5459 12.4754H24.6028C24.9599 11.9436 25.4347 11.6777 26.0272 11.6777C26.3843 11.6777 26.7109 11.7651 27.0072 11.9398C27.3035 12.1145 27.5276 12.35 27.6795 12.6463H27.7365C27.8808 12.3652 28.1239 12.1335 28.4658 11.9512C28.8076 11.7689 29.1723 11.6777 29.5597 11.6777C29.9927 11.6777 30.3764 11.7765 30.7106 11.974C31.0525 12.1639 31.3145 12.4412 31.4969 12.8058C31.6868 13.1629 31.7817 13.5845 31.7817 14.0707V17.8311H30.1864V14.2986C30.1864 13.896 30.0915 13.5959 29.9016 13.3984C29.7116 13.2009 29.4647 13.1021 29.1609 13.1021C28.8874 13.1021 28.6557 13.2084 28.4658 13.4212C28.2835 13.6263 28.1923 13.9187 28.1923 14.2986V17.8311H26.597V14.2986C26.597 13.896 26.502 13.5959 26.3121 13.3984C26.1222 13.2009 25.8753 13.1021 25.5714 13.1021C25.2979 13.1021 25.0662 13.2084 24.8763 13.4212C24.694 13.6263 24.6028 13.9187 24.6028 14.2986V17.8311H23.0075ZM32.7477 20.1101V11.7917H34.1151L34.286 12.4754H34.343C34.7988 11.9436 35.3685 11.6777 36.0522 11.6777C36.5688 11.6777 37.0246 11.7993 37.4196 12.0424C37.8147 12.2778 38.1223 12.6311 38.3426 13.1021C38.563 13.5731 38.6731 14.1428 38.6731 14.8114C38.6731 15.4799 38.563 16.0496 38.3426 16.5206C38.1223 16.9916 37.8147 17.3487 37.4196 17.5918C37.0246 17.8273 36.5688 17.945 36.0522 17.945C35.6496 17.945 35.3116 17.8728 35.0381 17.7285C34.7646 17.5766 34.5519 17.4018 34.3999 17.2043H34.343V20.1101H32.7477ZM35.7104 16.5206C36.1054 16.5206 36.4321 16.3801 36.6904 16.099C36.9486 15.8103 37.0778 15.3811 37.0778 14.8114C37.0778 14.2416 36.9486 13.8162 36.6904 13.5351C36.4321 13.2464 36.1054 13.1021 35.7104 13.1021C35.3154 13.1021 34.9887 13.2464 34.7304 13.5351C34.4721 13.8162 34.343 14.2416 34.343 14.8114C34.343 15.3811 34.4721 15.8103 34.7304 16.099C34.9887 16.3801 35.3154 16.5206 35.7104 16.5206ZM42.0943 17.945C41.1751 17.945 40.4496 17.6715 39.9178 17.1246C39.3937 16.57 39.1316 15.7989 39.1316 14.8114C39.1316 13.8238 39.3937 13.0565 39.9178 12.5096C40.4496 11.955 41.1751 11.6777 42.0943 11.6777C43.0135 11.6777 43.7352 11.955 44.2594 12.5096C44.7911 13.0565 45.057 13.8238 45.057 14.8114C45.057 15.7989 44.7911 16.57 44.2594 17.1246C43.7352 17.6715 43.0135 17.945 42.0943 17.945ZM42.0943 16.5206C42.4893 16.5206 42.816 16.3801 43.0743 16.099C43.3326 15.8103 43.4617 15.3811 43.4617 14.8114C43.4617 14.2416 43.3326 13.8162 43.0743 13.5351C42.816 13.2464 42.4893 13.1021 42.0943 13.1021C41.6993 13.1021 41.3726 13.2464 41.1143 13.5351C40.856 13.8162 40.7269 14.2416 40.7269 14.8114C40.7269 15.3811 40.856 15.8103 41.1143 16.099C41.3726 16.3801 41.6993 16.5206 42.0943 16.5206ZM48.6105 17.8311H46.8215L45.1692 11.7917H46.7645L47.8015 15.8939H47.8584L48.941 11.7917H50.4907L51.5732 15.8939H51.6302L52.6672 11.7917H54.2283L52.576 17.8311H50.787L49.7272 14.0137H49.6702L48.6105 17.8311ZM60.2071 14.6974C60.2071 14.9025 60.1882 15.1114 60.1502 15.3241H55.9796C56.1239 16.1598 56.5645 16.5776 57.3014 16.5776C57.5901 16.5776 57.8104 16.5282 57.9623 16.4295C58.1142 16.3231 58.2548 16.1636 58.3839 15.9509H60.0932C59.9337 16.5282 59.626 17.0068 59.1702 17.3866C58.7144 17.7589 58.0915 17.945 57.3014 17.945C56.3822 17.945 55.6567 17.6715 55.1249 17.1246C54.6008 16.57 54.3387 15.7989 54.3387 14.8114C54.3387 13.8238 54.6008 13.0565 55.1249 12.5096C55.6567 11.955 56.3822 11.6777 57.3014 11.6777C57.8787 11.6777 58.3877 11.8069 58.8283 12.0651C59.2689 12.3158 59.607 12.6729 59.8425 13.1363C60.0856 13.5921 60.2071 14.1125 60.2071 14.6974ZM58.646 14.1846C58.5852 13.8808 58.4371 13.6149 58.2016 13.387C57.9737 13.1591 57.6736 13.0451 57.3014 13.0451C56.9595 13.0451 56.6709 13.1477 56.4354 13.3528C56.2075 13.5503 56.0555 13.8276 55.9796 14.1846H58.646ZM60.9474 17.8311V11.7917H62.3148L62.4857 12.4754H62.5427C62.8466 12.0196 63.3214 11.7917 63.9671 11.7917H64.7078V13.33H64.081C63.6024 13.33 63.2264 13.4629 62.9529 13.7288C62.6794 13.9947 62.5427 14.3556 62.5427 14.8114V17.8311H60.9474ZM70.4623 14.6974C70.4623 14.9025 70.4433 15.1114 70.4053 15.3241H66.2347C66.379 16.1598 66.8196 16.5776 67.5565 16.5776C67.8452 16.5776 68.0655 16.5282 68.2174 16.4295C68.3694 16.3231 68.5099 16.1636 68.6391 15.9509H70.3483C70.1888 16.5282 69.8811 17.0068 69.4253 17.3866C68.9695 17.7589 68.3466 17.945 67.5565 17.945C66.6373 17.945 65.9118 17.6715 65.3801 17.1246C64.8559 16.57 64.5938 15.7989 64.5938 14.8114C64.5938 13.8238 64.8559 13.0565 65.3801 12.5096C65.9118 11.955 66.6373 11.6777 67.5565 11.6777C68.1339 11.6777 68.6429 11.8069 69.0835 12.0651C69.5241 12.3158 69.8621 12.6729 70.0976 13.1363C70.3407 13.5921 70.4623 14.1125 70.4623 14.6974ZM68.9011 14.1846C68.8404 13.8808 68.6922 13.6149 68.4567 13.387C68.2288 13.1591 67.9288 13.0451 67.5565 13.0451C67.2147 13.0451 66.926 13.1477 66.6905 13.3528C66.4626 13.5503 66.3107 13.8276 66.2347 14.1846H68.9011ZM73.5385 17.945C73.0219 17.945 72.5661 17.8273 72.1711 17.5918C71.7761 17.3487 71.4684 16.9916 71.2481 16.5206C71.0278 16.0496 70.9176 15.4799 70.9176 14.8114C70.9176 14.1428 71.0278 13.5731 71.2481 13.1021C71.4684 12.6311 71.7761 12.2778 72.1711 12.0424C72.5661 11.7993 73.0219 11.6777 73.5385 11.6777C73.9411 11.6777 74.2792 11.7537 74.5527 11.9056C74.8261 12.0499 75.0389 12.2209 75.1908 12.4184H75.2478V9.8545H76.8431V17.8311H75.4757L75.3047 17.1473H75.2478C74.792 17.6791 74.2222 17.945 73.5385 17.945ZM73.8804 16.5206C74.2754 16.5206 74.602 16.3801 74.8603 16.099C75.1186 15.8103 75.2478 15.3811 75.2478 14.8114C75.2478 14.2416 75.1186 13.8162 74.8603 13.5351C74.602 13.2464 74.2754 13.1021 73.8804 13.1021C73.4853 13.1021 73.1587 13.2464 72.9004 13.5351C72.6421 13.8162 72.5129 14.2416 72.5129 14.8114C72.5129 15.3811 72.6421 15.8103 72.9004 16.099C73.1587 16.3801 73.4853 16.5206 73.8804 16.5206ZM83.5729 17.945C82.8891 17.945 82.3194 17.6791 81.8636 17.1473H81.8066L81.6357 17.8311H80.2683V9.8545H81.8636V12.4184H81.9206C82.0725 12.2209 82.2852 12.0499 82.5587 11.9056C82.8322 11.7537 83.1702 11.6777 83.5729 11.6777C84.0894 11.6777 84.5452 11.7993 84.9403 12.0424C85.3353 12.2778 85.643 12.6311 85.8633 13.1021C86.0836 13.5731 86.1937 14.1428 86.1937 14.8114C86.1937 15.4799 86.0836 16.0496 85.8633 16.5206C85.643 16.9916 85.3353 17.3487 84.9403 17.5918C84.5452 17.8273 84.0894 17.945 83.5729 17.945ZM83.231 16.5206C83.626 16.5206 83.9527 16.3801 84.211 16.099C84.4693 15.8103 84.5984 15.3811 84.5984 14.8114C84.5984 14.2416 84.4693 13.8162 84.211 13.5351C83.9527 13.2464 83.626 13.1021 83.231 13.1021C82.836 13.1021 82.5093 13.2464 82.251 13.5351C81.9927 13.8162 81.8636 14.2416 81.8636 14.8114C81.8636 15.3811 81.9927 15.8103 82.251 16.099C82.5093 16.3801 82.836 16.5206 83.231 16.5206ZM89.2188 20.1101H87.5665L88.4895 17.8311L86.0281 11.7917H87.7488L89.2757 15.8369H89.3327L90.8483 11.7917H92.5233L89.2188 20.1101Z" fill="#0E0E0E"/>
<path d="M86.0493 46.1695C84.5162 46.1695 83.1215 45.9033 81.8652 45.371C80.6302 44.8173 79.6294 44.0082 78.8628 42.9435C78.0963 41.8576 77.6811 40.5481 77.6172 39.015H82.9831C83.0044 39.7815 83.2812 40.399 83.8135 40.8675C84.3671 41.3146 85.1124 41.5382 86.0493 41.5382C86.7732 41.5382 87.3375 41.4424 87.7421 41.2507C88.1679 41.0378 88.4767 40.7716 88.6683 40.4522C88.86 40.1116 88.9558 39.7283 88.9558 39.3024C88.9558 38.834 88.7961 38.4507 88.4767 38.1526C88.1573 37.8332 87.7527 37.5777 87.263 37.386C86.7732 37.1944 86.0919 36.9708 85.2188 36.7153C83.8135 36.3107 82.653 35.8955 81.7374 35.4696C80.8218 35.0225 80.0233 34.3411 79.3419 33.4255C78.6818 32.5099 78.3518 31.2855 78.3518 29.7524C78.3518 28.2832 78.7031 27.0589 79.4058 26.0794C80.1298 25.0999 81.0773 24.3759 82.2485 23.9075C83.4196 23.4177 84.6865 23.1729 86.0493 23.1729C87.8805 23.1729 89.3923 23.4816 90.5847 24.0991C91.7984 24.7166 92.6821 25.5364 93.2357 26.5585C93.8106 27.5805 94.1194 28.7197 94.162 29.976H88.7961C88.7322 29.2946 88.4767 28.7623 88.0295 28.379C87.6037 27.9958 87.0075 27.8041 86.2409 27.8041C85.7086 27.8041 85.2614 27.8893 84.8994 28.0596C84.5375 28.23 84.2607 28.4642 84.069 28.7623C83.8987 29.0604 83.8135 29.3905 83.8135 29.7524C83.8135 30.2635 83.9838 30.6893 84.3245 31.03C84.6652 31.3494 85.0804 31.6156 85.5702 31.8285C86.0812 32.0202 86.7945 32.265 87.7101 32.5631C89.1155 33.0103 90.2653 33.4468 91.1596 33.8727C92.0539 34.2985 92.8205 34.948 93.4593 35.821C94.0981 36.694 94.4175 37.8545 94.4175 39.3024C94.4175 40.6865 94.0768 41.9002 93.3954 42.9435C92.714 43.9869 91.7345 44.7854 90.457 45.339C89.2007 45.8926 87.7314 46.1695 86.0493 46.1695Z" fill="#0E0E0E"/>
<path d="M52.8203 45.85V23.4922H60.0068L64.638 38.5039H64.7977L69.4609 23.4922H76.4877V45.85H71.537V30.8064H71.3773L66.6822 45.85H62.6258L57.9307 30.8064H57.771V45.85H52.8203Z" fill="#0E0E0E"/>
<path d="M45.2852 45.85V23.4922H50.5233V45.85H45.2852Z" fill="#0E0E0E"/>
<path d="M37.9375 45.85V23.4922H43.1756V45.85H37.9375Z" fill="#0E0E0E"/>
<path d="M16 45.85L22.8032 23.4922H29.255L36.0582 45.85H30.7881L26.0291 28.8581H25.8694L21.1423 45.85H16ZM20.6951 41.8256L22.4518 37.386H29.7341L31.4588 41.8256H20.6951Z" fill="#0E0E0E"/>
<path d="M105.165 23.8983C105.216 23.8815 105.263 23.8871 105.308 23.9152C105.359 23.9377 105.396 23.9714 105.418 24.0164C105.446 24.0557 105.457 24.1007 105.452 24.1513C105.452 24.1963 105.429 24.2385 105.384 24.2778C105.351 24.3059 105.317 24.334 105.283 24.3622C105.249 24.3903 105.216 24.4184 105.182 24.4465C105.165 24.4915 105.143 24.5336 105.114 24.573C105.092 24.6067 105.067 24.6461 105.039 24.6911C104.892 24.9159 104.738 25.1352 104.575 25.3489C104.423 25.5569 104.268 25.7621 104.111 25.9645C103.959 26.1669 103.807 26.3721 103.655 26.5801C103.492 26.7938 103.332 27.0046 103.175 27.2126C103.017 27.4206 102.86 27.6315 102.703 27.8451C102.573 28.0363 102.441 28.2302 102.306 28.427C102.171 28.6182 102.064 28.8234 101.986 29.0426C102.003 29.0932 102.003 29.1438 101.986 29.1944C101.969 29.245 101.932 29.2844 101.876 29.3125L101.8 29.3631C101.688 29.4306 101.587 29.4334 101.497 29.3715C101.407 29.3041 101.356 29.2141 101.345 29.1017C101.328 28.9724 101.339 28.8459 101.378 28.7222C101.423 28.5985 101.48 28.4776 101.547 28.3595C101.615 28.2415 101.691 28.129 101.775 28.0222C101.859 27.9098 101.935 27.8057 102.003 27.7102C102.149 27.5021 102.298 27.2969 102.45 27.0945C102.601 26.8921 102.759 26.6926 102.922 26.4958C103.062 26.3159 103.203 26.1388 103.343 25.9645C103.49 25.7902 103.636 25.6131 103.782 25.4332C103.731 25.4782 103.678 25.5203 103.622 25.5597C103.571 25.599 103.523 25.6412 103.478 25.6862C103.332 25.8099 103.186 25.9364 103.04 26.0657C102.899 26.195 102.762 26.3299 102.627 26.4705C102.486 26.611 102.354 26.76 102.23 26.9174C102.107 27.0692 101.977 27.2126 101.842 27.3475C101.775 27.415 101.702 27.4572 101.623 27.474C101.544 27.4909 101.471 27.4853 101.404 27.4572C101.336 27.4291 101.28 27.3813 101.235 27.3138C101.19 27.2463 101.168 27.1648 101.168 27.0692C101.168 26.9231 101.193 26.7769 101.244 26.6307C101.3 26.4789 101.359 26.3327 101.421 26.1922C101.342 26.2934 101.266 26.3946 101.193 26.4958C101.12 26.597 101.044 26.6954 100.965 26.7909C100.797 27.0271 100.631 27.2604 100.468 27.4909C100.305 27.7214 100.15 27.9575 100.004 28.1993C99.9308 28.323 99.8577 28.4467 99.7846 28.5704C99.7171 28.6884 99.6525 28.8121 99.5906 28.9414C99.5625 28.992 99.5316 29.0483 99.4979 29.1101C99.4698 29.1663 99.4529 29.2254 99.4473 29.2872C99.4416 29.3322 99.4388 29.3547 99.4388 29.3547C99.4445 29.3547 99.481 29.3603 99.5485 29.3715C99.6272 29.394 99.6834 29.4446 99.7171 29.5233C99.7509 29.602 99.7452 29.6779 99.7003 29.751C99.6553 29.8241 99.5991 29.8775 99.5316 29.9113C99.4641 29.9506 99.391 29.9731 99.3123 29.9787C99.2392 29.9843 99.1633 29.9731 99.0846 29.945C99.0059 29.9225 98.9385 29.8831 98.8822 29.8269C98.7585 29.7032 98.6939 29.5599 98.6883 29.3968C98.6826 29.2282 98.7079 29.0707 98.7642 28.9246C98.8935 28.5929 99.0565 28.2752 99.2533 27.9716C99.4501 27.6624 99.6497 27.3644 99.8521 27.0777C100.274 26.4873 100.712 25.9139 101.168 25.3573C101.623 24.7951 102.084 24.2357 102.551 23.6791V23.6875C102.59 23.6481 102.635 23.6257 102.686 23.62C102.742 23.6088 102.792 23.6116 102.837 23.6285C102.882 23.6453 102.922 23.6734 102.956 23.7128C102.995 23.7465 103.017 23.7887 103.023 23.8393C103.079 23.8674 103.099 23.9152 103.082 23.9827C103.048 24.1232 102.995 24.2581 102.922 24.3875C102.854 24.5111 102.787 24.6376 102.719 24.767C102.658 24.8906 102.596 25.0115 102.534 25.1296C102.472 25.2477 102.41 25.3685 102.348 25.4922C102.286 25.6159 102.227 25.7396 102.171 25.8633C102.115 25.9813 102.062 26.105 102.011 26.2343C102.039 26.2062 102.07 26.1753 102.104 26.1416C102.137 26.1078 102.168 26.0741 102.197 26.0404C102.489 25.748 102.795 25.4669 103.116 25.1971C103.268 25.0734 103.422 24.9469 103.58 24.8176C103.743 24.6882 103.908 24.5674 104.077 24.4549C104.251 24.3369 104.429 24.23 104.608 24.1345C104.788 24.0389 104.974 23.9602 105.165 23.8983Z" fill="#F5412C"/>
<path d="M102.375 23.5947C102.437 23.6172 102.482 23.6509 102.51 23.6959C102.544 23.7409 102.561 23.7915 102.561 23.8477C102.561 23.8983 102.544 23.9489 102.51 23.9995C102.482 24.0445 102.437 24.0782 102.375 24.1007C102.133 24.1907 101.875 24.2385 101.599 24.2441C101.324 24.2441 101.057 24.2553 100.798 24.2778C100.652 24.2891 100.508 24.3031 100.368 24.32C100.233 24.3312 100.092 24.3453 99.9462 24.3621C99.8844 24.4577 99.8113 24.5505 99.727 24.6404C99.6482 24.7248 99.5752 24.8147 99.5077 24.9103C99.429 25.0115 99.3559 25.1155 99.2884 25.2223C99.221 25.3292 99.1507 25.436 99.0776 25.5428C98.9314 25.7621 98.7852 25.9841 98.6391 26.209C98.4985 26.4283 98.3608 26.6532 98.2258 26.8837C98.0909 27.1086 97.9588 27.3363 97.8295 27.5668C97.7058 27.7973 97.6018 28.0391 97.5174 28.2921C97.4893 28.3764 97.4612 28.4692 97.4331 28.5704C97.4106 28.6716 97.4134 28.7699 97.4415 28.8655C97.4696 28.9442 97.5202 29.0089 97.5933 29.0595C97.6664 29.1045 97.7198 29.1635 97.7536 29.2366C97.7817 29.2984 97.7929 29.3631 97.7873 29.4306C97.7873 29.498 97.7592 29.5571 97.703 29.6077C97.5905 29.7201 97.4556 29.7623 97.2982 29.7342C97.1408 29.706 97.0058 29.6442 96.8934 29.5486C96.7809 29.453 96.6938 29.335 96.6319 29.1944C96.5701 29.0539 96.5336 28.9105 96.5223 28.7643C96.5111 28.6069 96.5251 28.4467 96.5645 28.2836C96.5982 28.1206 96.6488 27.9632 96.7163 27.8114C96.7781 27.6539 96.8512 27.5021 96.9355 27.356C97.0143 27.2042 97.093 27.0608 97.1717 26.9259C97.3403 26.6223 97.5202 26.3299 97.7114 26.0488C97.9082 25.7677 98.105 25.4838 98.3017 25.197C98.3748 25.0958 98.4479 24.989 98.521 24.8766C98.5997 24.7585 98.6812 24.6433 98.7656 24.5308C98.4226 24.587 98.074 24.6545 97.7198 24.7332C97.7704 24.7669 97.8014 24.8147 97.8126 24.8766C97.8295 24.9328 97.8295 24.9918 97.8126 25.0537C97.8014 25.1099 97.7704 25.1605 97.7198 25.2055C97.6749 25.2448 97.6158 25.2673 97.5427 25.2729C97.3966 25.2842 97.2363 25.287 97.062 25.2814C96.8878 25.2758 96.736 25.242 96.6066 25.1802C96.4717 25.1183 96.3874 25.0199 96.3536 24.885C96.3199 24.7445 96.348 24.6151 96.438 24.4971C96.4773 24.4409 96.5307 24.3931 96.5982 24.3537C96.6601 24.3087 96.7275 24.2722 96.8006 24.2441C96.8681 24.2103 96.9412 24.1822 97.0199 24.1597C97.093 24.1373 97.1632 24.1176 97.2307 24.1007C97.3881 24.0557 97.5455 24.0164 97.703 23.9827C97.8604 23.9489 98.0206 23.918 98.1837 23.8899C98.5379 23.828 98.8893 23.7718 99.2378 23.7212C99.592 23.665 99.9462 23.62 100.3 23.5863C100.475 23.575 100.649 23.5638 100.823 23.5526C100.998 23.5413 101.175 23.5301 101.355 23.5188C101.529 23.5076 101.7 23.502 101.869 23.502C102.043 23.502 102.212 23.5329 102.375 23.5947Z" fill="#F5412C"/>
</svg>
