<svg width="106" height="106" viewBox="0 0 106 106" fill="none" xmlns="http://www.w3.org/2000/svg">
<g clip-path="url(#clip0_36_932)">
<path d="M0 0H106V106H0V0Z" fill="#0E0F1E"/>
<path d="M69.0473 55.1293C69.1523 55.1195 69.2584 55.1154 69.364 55.1107C71.0472 55.0383 72.7609 55.1004 74.4482 55.1004C75.5232 55.1009 77.2866 54.9798 78.2855 55.1837C78.7627 55.281 79.1369 55.4761 79.492 55.8105C80.008 56.2965 84.2128 64.1378 84.5715 65.0829C84.7578 65.573 84.7858 66.1175 84.792 66.6382C84.823 69.2934 84.7961 71.9527 84.7951 74.6089C84.7946 75.5789 84.8945 77.5141 84.7537 78.3976C84.6921 78.7816 84.4411 79.2019 84.1652 79.471C83.4773 80.1413 82.4846 80.0249 81.6053 80.0145C81.4919 78.617 81.067 77.3883 80.1917 76.2781C79.1312 74.9453 77.5889 74.0841 75.8979 73.8807C74.0947 73.6509 72.2754 74.1653 70.8588 75.3051C69.32 76.5421 68.6653 78.1026 68.4608 80.0161L45.5241 80.0176C45.5016 79.7283 45.4584 79.4167 45.4239 79.1269C45.1626 78.0327 44.8674 77.2413 44.167 76.335C43.1028 74.9733 41.5402 74.0919 39.8245 73.8853C38.0443 73.6524 36.2459 74.1519 34.8404 75.2688C33.2622 76.5229 32.6158 78.0725 32.3992 80.0176C32.1456 80.0202 31.7107 80.0109 31.4965 80.0243C28.3439 80.2231 28.5845 78.1341 28.6196 75.7993C28.6283 75.2186 28.5633 74.4785 28.724 73.8755C28.8121 73.5525 28.981 73.2575 29.2147 73.0179C30.0143 72.1877 30.7933 72.359 31.8395 72.345C32.6222 72.3342 33.4081 72.3445 34.1911 72.3445H42.0367L67.2865 72.345L67.287 62.0928L67.2849 58.8999C67.2823 57.1976 66.9738 55.6681 69.0473 55.1293Z" fill="white"/>
<path d="M71.2713 57.2483C72.295 57.2317 77.2472 57.1091 77.8585 57.3725C78.0629 57.4605 78.2275 57.7286 78.3424 57.9118C79.1545 59.2068 79.8284 60.6514 80.5561 61.9986C80.9826 62.7884 81.5514 63.5959 81.877 64.4266C81.9841 64.6993 82.0447 65.0104 81.907 65.2842C81.7807 65.5352 81.526 65.6413 81.2735 65.7184L74.7406 65.7169C73.7313 65.7159 72.7205 65.7397 71.7122 65.7236C70.9395 65.6983 70.497 65.3008 70.4897 64.5218C70.4732 62.4629 70.5156 60.4024 70.4778 58.3435C70.4669 57.7628 70.7765 57.4569 71.2713 57.2483Z" fill="#0E0F1E"/>
<path d="M34.2164 23.3539C34.9393 23.2865 36.1058 23.323 36.8742 23.3232L41.5682 23.3242L56.6473 23.3249L67.3715 23.3215L70.2503 23.3205C71.9925 23.3205 73.5467 23.2066 74.6378 24.8543C75.1947 25.6981 75.3888 26.7303 75.1766 27.7187C74.7744 29.6193 73.2233 30.2162 71.7611 31.21C71.4956 31.3908 71.2187 31.5605 70.948 31.7352L65.1739 35.4941L44.9907 48.6457C46.2743 49.487 47.9412 50.4311 49.276 51.2365L57.7461 56.3353C56.5593 56.8741 56.0448 57.3238 55.2985 58.3673C54.7804 59.2213 54.5879 59.9443 54.4171 60.9112C51.1554 59.0443 47.7226 56.8694 44.4914 54.9145L40.5743 52.5487C39.6811 52.0114 38.1217 51.2333 37.5718 50.3742C37.1373 49.6841 36.9963 48.8492 37.1798 48.0547C37.5174 46.6227 38.6316 46.1158 39.7534 45.3666C40.2678 45.0231 40.7936 44.6922 41.3127 44.3559L47.2203 40.527L59.4096 32.6176C61.2864 31.3999 63.2055 30.1078 65.0911 28.9227L44.6242 28.9238L38.0499 28.9239C36.9199 28.9239 35.7639 28.9378 34.6347 28.9105C34.1512 28.8988 33.7594 28.8165 33.3326 28.582C32.6607 28.2197 32.1671 27.5973 31.9675 26.8605C31.7655 26.12 31.8728 25.3291 32.265 24.6692C32.7317 23.9012 33.3833 23.5592 34.2164 23.3539Z" fill="white"/>
<path d="M34.7464 25.074C35.3171 24.9388 35.8899 25.289 36.0298 25.8584C36.1697 26.4279 35.8243 27.0036 35.2561 27.1483C34.6811 27.2946 34.097 26.9443 33.9554 26.3681C33.8139 25.7919 34.1691 25.2107 34.7464 25.074Z" fill="#0E0F1E"/>
<path d="M71.3796 25.9534C71.9665 25.8706 72.5079 26.2821 72.5855 26.8696C72.6631 27.4571 72.247 27.9952 71.659 28.0677C71.0783 28.1393 70.5478 27.7293 70.4712 27.1491C70.3946 26.5688 70.7999 26.0352 71.3796 25.9534Z" fill="#0E0F1E"/>
<path d="M40.0059 47.7463C40.5665 47.5767 41.158 47.8962 41.3235 48.458C41.4891 49.0199 41.1654 49.609 40.6025 49.7705C40.0451 49.9305 39.4631 49.6108 39.2991 49.0546C39.1353 48.4983 39.4509 47.9141 40.0059 47.7463Z" fill="#0E0F1E"/>
<path d="M59.3875 57.7726C60.7917 57.6225 62.1726 58.1344 62.9774 59.3445C63.3599 59.9195 63.5235 60.8035 63.6777 61.466C63.8537 62.2253 64.0369 62.9831 64.2274 63.7387C64.4577 64.6466 64.966 66.1941 65.0891 67.0373C65.2123 67.8814 65.1704 69.5827 65.1678 70.4936L40.7296 70.4931L34.9966 70.4926C35.0217 69.0491 35.1271 68.061 36.1662 66.9586C37.4286 65.6191 38.8685 65.7014 40.5448 65.7014L43.406 65.7035C47.2558 65.7055 51.3217 65.7764 55.1547 65.6957C56.2665 62.7134 55.5181 58.4951 59.3875 57.7726Z" fill="white"/>
<path d="M59.591 60.4288C59.9559 60.3082 60.3571 60.3941 60.6402 60.6534C60.9238 60.9122 61.0449 61.3045 60.9574 61.6782C60.87 62.0519 60.5874 62.3495 60.2183 62.4561C59.663 62.6161 59.0812 62.3024 58.9104 61.7502C58.7396 61.1979 59.0424 60.6105 59.591 60.4288Z" fill="#0E0F1E"/>
<path d="M30.1634 25.6736L30.2295 25.6701C30.3265 25.7357 30.3365 26.5908 30.3601 26.7773C30.3998 27.0907 30.4531 27.3217 30.5359 27.6265C29.3803 28.1731 28.422 28.9467 28.1651 30.2647C27.6844 32.731 29.9422 34.3014 31.0396 36.2634C31.6962 37.42 32.0404 38.7275 32.0385 40.0575C32.0315 42.5265 31.0187 44.6644 29.0385 46.1446C27.0538 47.628 25.9341 48.1863 25.9507 50.8394C26.4565 50.8313 27.1547 50.7417 27.5569 51.0184C27.6518 51.1513 27.7056 51.3631 27.688 51.5347C27.5705 52.6807 27.4144 53.9467 27.1438 55.0647C27.1115 55.1977 26.9635 55.3442 26.8752 55.4321C26.6826 57.49 26.5984 59.5728 26.4311 61.6338C26.3973 62.0504 26.3885 62.6016 26.1521 62.9562C25.7689 63.201 24.9095 63.1213 24.4169 63.114C24.0055 63.1146 23.6364 63.054 23.5842 62.5695C23.504 61.8279 23.4687 61.0701 23.4141 60.3253L23.0583 55.444C22.9416 55.325 22.8409 55.2132 22.8086 55.0377C22.6016 53.9172 22.4053 52.7304 22.2941 51.5982C22.2741 51.3949 22.3215 51.2003 22.4192 51.0314C22.7821 50.7607 23.5023 50.8475 23.9698 50.856C23.9759 45.2359 28.1116 45.9312 29.6518 42.363C29.9564 41.6574 30.0905 40.8935 30.1013 40.1275C30.1465 36.8917 27.5512 35.642 26.5121 32.96C26.0061 31.6538 25.9906 30.1736 26.564 28.8868C27.2653 27.3131 28.576 26.2736 30.1634 25.6736Z" fill="white"/>
<path d="M74.5463 75.6461C77.1042 75.3765 79.395 77.2356 79.6569 79.794C79.9193 82.3524 78.0534 84.6375 75.494 84.8921C72.9454 85.1457 70.6717 83.2892 70.4108 80.7417C70.1495 78.1936 71.9993 75.9147 74.5463 75.6461Z" fill="white"/>
<path d="M74.6082 78.4731C75.2438 78.3246 75.911 78.529 76.354 79.0088C76.797 79.4891 76.9471 80.1702 76.7479 80.7924C76.5481 81.414 76.0295 81.8808 75.3897 82.0133C74.4183 82.2152 73.4654 81.5982 73.2516 80.6293C73.0374 79.6604 73.6419 78.6998 74.6082 78.4731Z" fill="#0E0F1E"/>
<path d="M38.4968 75.6482C41.0526 75.3894 43.3332 77.2537 43.5881 79.81C43.843 82.3664 41.9754 84.6442 39.4189 84.8953C36.8675 85.1463 34.595 83.283 34.3407 80.7319C34.0863 78.1812 35.9461 75.906 38.4968 75.6482Z" fill="white"/>
<path d="M38.539 78.4721C39.1747 78.3246 39.8404 78.5306 40.2819 79.0114C40.7234 79.4917 40.8726 80.1723 40.6724 80.7934C40.4722 81.4145 39.9535 81.8798 39.3146 82.0118C38.3427 82.2126 37.39 81.5946 37.1776 80.6252C36.9652 79.6558 37.5722 78.6957 38.539 78.4721Z" fill="#0E0F1E"/>
</g>
<defs>
<clipPath id="clip0_36_932">
<rect width="106" height="106" rx="53" fill="white"/>
</clipPath>
</defs>
</svg>
