<svg width="106" height="106" viewBox="0 0 106 106" fill="none" xmlns="http://www.w3.org/2000/svg">
<circle cx="53" cy="53" r="53" fill="#0E0F1E"/>
<mask id="mask0_36_1048" style="mask-type:alpha" maskUnits="userSpaceOnUse" x="23" y="22" width="61" height="61">
<rect x="23" y="22" width="61" height="61" fill="#D9D9D9"/>
</mask>
<g mask="url(#mask0_36_1048)">
<path fill-rule="evenodd" clip-rule="evenodd" d="M32.1182 76.4234C33.1137 77.4189 34.3104 77.9166 35.7083 77.9166H56.55L51.4667 72.8333H35.7083V47.4166H71.2917V58.5364L76.375 53.4531V37.25C76.375 35.8521 75.8773 34.6554 74.8818 33.6599C73.8863 32.6644 72.6896 32.1666 71.2917 32.1666H68.75V27.0833H63.6667V32.1666H43.3333V27.0833H38.25V32.1666H35.7083C34.3104 32.1666 33.1137 32.6644 32.1182 33.6599C31.1227 34.6554 30.625 35.8521 30.625 37.25V72.8333C30.625 74.2312 31.1227 75.4279 32.1182 76.4234Z" fill="white"/>
<path d="M65.0646 79.1875L56.0417 70.1646L59.6 66.6062L65.001 72.0073L75.8031 61.2052L79.3615 64.8271L65.0646 79.1875Z" fill="white"/>
</g>
</svg>
