<svg width="106" height="106" viewBox="0 0 106 106" fill="none" xmlns="http://www.w3.org/2000/svg">
<circle cx="53" cy="53" r="53" fill="#0E0F1E"/>
<mask id="mask0_36_1049" style="mask-type:alpha" maskUnits="userSpaceOnUse" x="24" y="20" width="59" height="59">
<rect x="24" y="20" width="59" height="59" fill="#D9D9D9"/>
</mask>
<g mask="url(#mask0_36_1049)">
<path d="M38.7502 74.0834C37.3981 74.0834 36.2406 73.6019 35.2778 72.6391C34.3149 71.6762 33.8335 70.5188 33.8335 69.1667V29.8334C33.8335 28.4813 34.3149 27.3238 35.2778 26.361C36.2406 25.3981 37.3981 24.9167 38.7502 24.9167H58.4168L73.1668 39.6667V69.1667C73.1668 70.5188 72.6854 71.6762 71.7226 72.6391C70.7597 73.6019 69.6022 74.0834 68.2502 74.0834H38.7502ZM51.0418 66.7084H55.9585V64.25H58.4168C59.1134 64.25 59.6972 64.0144 60.1684 63.5433C60.6396 63.0721 60.8752 62.4882 60.8752 61.7917V54.4167C60.8752 53.7202 60.6396 53.1363 60.1684 52.6651C59.6972 52.1939 59.1134 51.9584 58.4168 51.9584H51.0418V49.5H60.8752V44.5834H55.9585V42.125H51.0418V44.5834H48.5835C47.887 44.5834 47.3031 44.8189 46.8319 45.2901C46.3608 45.7613 46.1252 46.3452 46.1252 47.0417V54.4167C46.1252 55.1132 46.3608 55.6971 46.8319 56.1683C47.3031 56.6394 47.887 56.875 48.5835 56.875H55.9585V59.3334H46.1252V64.25H51.0418V66.7084ZM56.3887 39.6667H66.222L56.3887 29.8334V39.6667Z" fill="white"/>
</g>
</svg>
