<svg width="28" height="28" viewBox="0 0 28 28" fill="none" xmlns="http://www.w3.org/2000/svg">
<mask id="mask0_36_1040" style="mask-type:alpha" maskUnits="userSpaceOnUse" x="0" y="0" width="28" height="28">
<rect width="28" height="28" fill="#D9D9D9"/>
</mask>
<g mask="url(#mask0_36_1040)">
<path d="M17.4998 23.3333C14.8943 23.3333 12.6873 22.4292 10.879 20.6208C9.07067 18.8125 8.1665 16.6055 8.1665 14C8.1665 11.4139 9.07067 9.2118 10.879 7.39374C12.6873 5.57568 14.8943 4.66666 17.4998 4.66666C20.0859 4.66666 22.288 5.57568 24.1061 7.39374C25.9241 9.2118 26.8332 11.4139 26.8332 14C26.8332 16.6055 25.9241 18.8125 24.1061 20.6208C22.288 22.4292 20.0859 23.3333 17.4998 23.3333ZM20.154 18.3458L21.8165 16.6833L18.6665 13.5333V9.33332H16.3332V14.4958L20.154 18.3458ZM2.33317 10.5V8.16666H6.99984V10.5H2.33317ZM1.1665 15.1667V12.8333H6.99984V15.1667H1.1665ZM2.33317 19.8333V17.5H6.99984V19.8333H2.33317Z" fill="#CA065E"/>
</g>
</svg>
