<svg width="28" height="28" viewBox="0 0 28 28" fill="none" xmlns="http://www.w3.org/2000/svg">
<mask id="mask0_36_1026" style="mask-type:alpha" maskUnits="userSpaceOnUse" x="0" y="0" width="28" height="28">
<rect width="28" height="28" fill="#D9D9D9"/>
</mask>
<g mask="url(#mask0_36_1026)">
<path fill-rule="evenodd" clip-rule="evenodd" d="M4.18542 24.9813C4.64236 25.4382 5.19167 25.6667 5.83333 25.6667H15.4L13.0667 23.3333H5.83333V11.6667H22.1667V16.7708L24.5 14.4375V7.00001C24.5 6.35834 24.2715 5.80904 23.8146 5.35209C23.3576 4.89515 22.8083 4.66668 22.1667 4.66668H21V2.33334H18.6667V4.66668H9.33333V2.33334H7V4.66668H5.83333C5.19167 4.66668 4.64236 4.89515 4.18542 5.35209C3.72847 5.80904 3.5 6.35834 3.5 7.00001V23.3333C3.5 23.975 3.72847 24.5243 4.18542 24.9813Z" fill="#CA065E"/>
<path d="M19.3083 26.25L15.1667 22.1083L16.8 20.475L19.2792 22.9542L24.2375 17.9958L25.8708 19.6583L19.3083 26.25Z" fill="#CA065E"/>
</g>
</svg>
