<svg width="28" height="28" viewBox="0 0 28 28" fill="none" xmlns="http://www.w3.org/2000/svg">
<path d="M23.3523 14.2314C23.8336 14.2316 24.6229 14.1782 25.0701 14.2695C25.2837 14.3131 25.4512 14.4001 25.6101 14.5498C25.8412 14.7674 27.7239 18.278 27.8845 18.7012C27.9679 18.9206 27.9804 19.1644 27.9832 19.3974C27.9971 20.5861 27.9846 21.7767 27.9841 22.9658C27.9839 23.4 28.0286 24.2665 27.9656 24.6621C27.938 24.8339 27.8263 25.0221 27.7029 25.1426C27.3949 25.4426 26.9501 25.3913 26.5564 25.3867C26.5057 24.7612 26.3153 24.2108 25.9236 23.7139C25.4488 23.1172 24.7578 22.7307 24.0007 22.6396C23.1936 22.5369 22.379 22.7672 21.7449 23.2773C21.056 23.8311 20.7632 24.5301 20.6716 25.3867L10.4021 25.3877C10.392 25.2583 10.3726 25.1189 10.3572 24.9892C10.2402 24.4995 10.1081 24.1449 9.79469 23.7392C9.31824 23.1296 8.61848 22.735 7.85035 22.6426C7.05335 22.5383 6.24817 22.7616 5.61891 23.2617C4.9124 23.8232 4.62311 24.5169 4.52614 25.3877C4.41261 25.3888 4.2178 25.3846 4.12184 25.3906C2.7104 25.4796 2.81804 24.5443 2.83375 23.499C2.83767 23.239 2.80868 22.9076 2.88063 22.6377C2.92009 22.4931 2.99574 22.3612 3.10035 22.2539C3.4583 21.8823 3.80687 21.9584 4.27516 21.9521H20.1453L20.1463 17.3623L20.1453 15.9326C20.1441 15.1706 20.0061 14.4863 20.9343 14.2451C20.9813 14.2407 21.0288 14.2384 21.0759 14.2363C21.8295 14.2039 22.5969 14.2314 23.3523 14.2314ZM21.9295 15.1933C21.7081 15.2867 21.5701 15.4237 21.575 15.6836C21.5919 16.6054 21.5724 17.5284 21.5798 18.4502C21.5832 18.7986 21.7811 18.9768 22.1267 18.9883C22.5781 18.9955 23.0313 18.9849 23.4832 18.9853H26.408C26.521 18.9508 26.6347 18.9033 26.6912 18.791C26.7528 18.6685 26.7264 18.5293 26.6785 18.4072C26.5327 18.0353 26.2776 17.6739 26.0867 17.3203C25.7609 16.7171 25.4591 16.07 25.0955 15.4902C25.044 15.4082 24.9701 15.2884 24.8787 15.249C24.6041 15.1312 22.3877 15.1859 21.9295 15.1933Z" fill="#CA065E"/>
<path d="M5.33965 0.0182292C5.6633 -0.0119419 6.18555 0.00441793 6.5296 0.00451062L8.63117 0.0049512L15.3824 0.00522912L20.1838 0.00374616L21.4727 0.00328296C22.2527 0.00325978 22.9485 -0.0476978 23.437 0.690011C23.6864 1.06777 23.7733 1.52989 23.6782 1.97244C23.4982 2.82338 22.8037 3.0906 22.1491 3.53555C22.0302 3.61649 21.9062 3.69247 21.785 3.77068L19.1999 5.45364L10.1635 11.3418C10.7382 11.7185 11.4845 12.1412 12.0821 12.5018L15.8743 14.7846C15.343 15.0258 15.1126 15.2272 14.7785 15.6943C14.5465 16.0767 14.4603 16.4004 14.3838 16.8333C12.9235 15.9974 11.3866 15.0237 9.93995 14.1485L8.18618 13.0892C7.78631 12.8487 7.08814 12.5003 6.84192 12.1157C6.64741 11.8067 6.58424 11.4329 6.66641 11.0772C6.81755 10.4361 7.31643 10.2092 7.81868 9.8737C8.04895 9.71992 8.28439 9.57176 8.51677 9.42118L11.1617 7.70694L16.6191 4.16573C17.4593 3.62057 18.3186 3.04206 19.1628 2.51149L9.99941 2.51195L7.05597 2.512C6.55004 2.51202 6.03249 2.51823 5.52691 2.50602C5.31045 2.50079 5.13503 2.46392 4.94395 2.35894C4.64314 2.19673 4.42216 1.91808 4.33279 1.58821C4.24232 1.25666 4.29038 0.902553 4.46596 0.607099C4.67493 0.26326 4.96666 0.110156 5.33965 0.0182292Z" fill="#CA065E"/>
<path d="M5.57706 0.788369C5.83254 0.727864 6.08902 0.884629 6.15165 1.13958C6.21429 1.39455 6.05966 1.6523 5.80524 1.71707C5.54779 1.7826 5.28629 1.62574 5.22291 1.36776C5.15953 1.10978 5.31857 0.849592 5.57706 0.788369Z" fill="#0E0F1E"/>
<path d="M21.9782 1.18208C22.241 1.14501 22.4834 1.32923 22.5182 1.59227C22.5529 1.8553 22.3666 2.09623 22.1034 2.1287C21.8434 2.16074 21.6058 1.97719 21.5715 1.7174C21.5372 1.45761 21.7187 1.2187 21.9782 1.18208Z" fill="#0E0F1E"/>
<path d="M7.932 10.9391C8.183 10.8632 8.4478 11.0063 8.52191 11.2578C8.59604 11.5094 8.45114 11.7731 8.19909 11.8455C7.94954 11.9171 7.68896 11.7739 7.61557 11.5249C7.5422 11.2759 7.68351 11.0143 7.932 10.9391Z" fill="#0E0F1E"/>
<path d="M16.6092 15.4281C17.2379 15.3609 17.8561 15.5901 18.2165 16.1319C18.3877 16.3893 18.461 16.7851 18.53 17.0817C18.6088 17.4217 18.6908 17.7609 18.7761 18.0992C18.8792 18.5057 19.1068 19.1986 19.1619 19.576C19.2171 19.954 19.1983 20.7157 19.1972 21.1235L8.25573 21.1233L5.68896 21.1231C5.7002 20.4768 5.74738 20.0344 6.2126 19.5408C6.77783 18.9411 7.42248 18.9779 8.17298 18.9779L9.454 18.9789C11.1776 18.9798 12.998 19.0115 14.7141 18.9754C15.2119 17.6402 14.8768 15.7516 16.6092 15.4281Z" fill="#CA065E"/>
<path d="M16.7006 16.6173C16.8639 16.5633 17.0435 16.6018 17.1703 16.7179C17.2973 16.8338 17.3515 17.0094 17.3123 17.1767C17.2732 17.344 17.1466 17.4773 16.9814 17.525C16.7328 17.5966 16.4723 17.4562 16.3958 17.2089C16.3194 16.9617 16.4549 16.6987 16.7006 16.6173Z" fill="#0E0F1E"/>
<path d="M3.52524 1.05682L3.55486 1.05527C3.59828 1.08463 3.60275 1.46747 3.61332 1.55096C3.63112 1.69129 3.65496 1.79471 3.69204 1.93118C3.17466 2.17588 2.74561 2.52225 2.63058 3.11235C2.41538 4.21654 3.42622 4.91965 3.91756 5.79806C4.21151 6.31588 4.36563 6.9013 4.36477 7.49675C4.36164 8.60216 3.90817 9.55934 3.02163 10.222C2.13304 10.8862 1.63172 11.1361 1.63918 12.324C1.8656 12.3204 2.1782 12.2803 2.3583 12.4041C2.40078 12.4636 2.42485 12.5585 2.41698 12.6353C2.36437 13.1484 2.29448 13.7152 2.17331 14.2157C2.15888 14.2753 2.09262 14.3409 2.05307 14.3803C1.96684 15.3016 1.92916 16.2341 1.85425 17.1568C1.83909 17.3434 1.83517 17.5902 1.72934 17.7489C1.55775 17.8585 1.17299 17.8228 0.952473 17.8196C0.768249 17.8198 0.603026 17.7927 0.579622 17.5758C0.543727 17.2437 0.527946 16.9045 0.503499 16.571L0.344162 14.3856C0.29193 14.3323 0.246859 14.2822 0.232376 14.2037C0.13973 13.702 0.0518362 13.1706 0.0020145 12.6637C-0.00693023 12.5727 0.0142961 12.4856 0.0580465 12.41C0.220535 12.2888 0.542985 12.3276 0.752282 12.3314C0.755017 9.81519 2.60665 10.1265 3.29622 8.52898C3.4326 8.21307 3.49264 7.87106 3.49743 7.5281C3.51769 6.07938 2.35573 5.51985 1.89051 4.3191C1.66395 3.73428 1.65702 3.07154 1.91373 2.49544C2.22772 1.79084 2.81455 1.32546 3.52524 1.05682Z" fill="#CA065E"/>
<path d="M23.3962 23.4304C24.5414 23.3097 25.5671 24.142 25.6843 25.2875C25.8018 26.4329 24.9664 27.456 23.8205 27.57C22.6795 27.6835 21.6615 26.8523 21.5447 25.7118C21.4277 24.571 22.2559 23.5507 23.3962 23.4304Z" fill="#CA065E"/>
<path d="M23.424 24.6961C23.7086 24.6296 24.0073 24.7211 24.2057 24.9359C24.404 25.151 24.4712 25.4559 24.382 25.7344C24.2926 26.0128 24.0604 26.2218 23.7739 26.2811C23.339 26.3715 22.9124 26.0952 22.8167 25.6614C22.7207 25.2277 22.9914 24.7976 23.424 24.6961Z" fill="#0E0F1E"/>
<path d="M7.25646 23.4313C8.40073 23.3155 9.4218 24.1502 9.53593 25.2947C9.65003 26.4392 8.81388 27.459 7.66928 27.5714C6.52697 27.6838 5.50955 26.8496 5.39568 25.7074C5.28178 24.5654 6.11447 23.5467 7.25646 23.4313Z" fill="#CA065E"/>
<path d="M7.27499 24.6956C7.5596 24.6296 7.85762 24.7218 8.05529 24.9371C8.25295 25.1521 8.31974 25.4569 8.2301 25.7349C8.14047 26.013 7.90828 26.2213 7.62221 26.2804C7.18707 26.3703 6.76053 26.0936 6.66545 25.6596C6.57035 25.2256 6.8421 24.7957 7.27499 24.6956Z" fill="#0E0F1E"/>
</svg>
